<?xml version="1.0" encoding="UTF-8"?>
<svg id="Layer_1" data-name="Layer 1" xmlns="http://www.w3.org/2000/svg" viewBox="0 0 280 280">
  <g>
    <g>
      <path d="m138,145.89c.43-1.99.4-4.06.36-6.06,0-.54-.02-1.09-.02-1.62v-24.44l-.69-.53c-.08.02-1.74.42-1.88.46h0s-.52.13-.52.13h0c-1.34.35-2.68.7-4.04,1.07-1.51.4-3.01.81-4.51,1.23-.04.01-.13.03-.26.06-1.66.41-2.01.49-2.01,1.02v22.84c0,.72.01,1.44.03,2.17.04,2.01.08,4.09-.2,6.06-.33,2.27-1.44,4.47-3.39,6.73-.41.47-.84.93-1.27,1.37v-43.89c.86-.23,1.73-.46,2.61-.69,1.5-.4,3-.81,4.49-1.22.17-.05.36-.09.54-.14.48-.11.97-.23,1.42-.45l8.92-4.4.07-.03c.19-.07.43-.16.57-.37.16-.24.15-.55.13-.95,0-.06,0-.12,0-.16,0-.58.02-1.16.03-1.73.06-1.86.18-3.5.37-5,.22-1.77.53-3.63,1.25-5.33l.03-.07c.17-.41.41-.97.72-1.2l1.78-1.35-2.2.37c-.21.03-.41.08-.6.13-.45.11-.9.22-1.34.34-1.52.39-3.03.79-4.54,1.2-1.51.41-3.02.81-4.53,1.23-.14.04-.32.07-.51.11-.54.11-1.14.23-1.54.53h0c-.44.34-.7.87-.93,1.35-.77,1.59-1.11,3.36-1.36,5.02-.21,1.41-.36,2.94-.45,4.69-.05.93-.08,1.87-.09,2.89,0,.08,0,.2.02.34,0,.09.02.25.02.37,0,0,0,0,0,0-.26.2-.65.37-1.04.53-.21.09-.42.17-.6.27l-3.24,1.6v-23.45s0-4.95,0-4.95c0-3.35.11-6.93.87-10.37.29-1.32.64-2.68,1.38-3.68.05-.07.11-.15.15-.18l1.78-1.35-2.2.37c-.21.03-.41.08-.6.13-.45.11-.9.22-1.34.34-1.52.39-3.03.79-4.56,1.2-1.51.4-3.01.81-4.51,1.23-.14.04-.32.07-.51.11-.54.11-1.14.23-1.54.53h0c-.7.54-1.06,1.54-1.31,2.27l-.04.13c-1.13,3.2-1.34,6.81-1.44,9.94-.08,2.5-.07,5.04-.05,7.5,0,.96.01,1.92.01,2.88v102.26c0,.9-.01,2.43,1.02,3.06,0,0,1.04.46,1.7.25.51-.07,1.03-.22,1.5-.36.21-.06.41-.12.6-.17,3.96-1.01,7.19-1.88,10.15-2.73l.12-.03c.25-.07.51-.15.77-.23,1.72-.35,3.08-1.59,3.63-1.99,1.65-1.2,3.35-2.67,5.33-4.62.31-.3.61-.6.91-.91l1.16-1.2-1.64.27c-.21.03-.41.08-.6.13-.45.11-.9.22-1.34.34-1.52.39-3.03.79-4.56,1.2-1.5.4-3.01.81-4.51,1.23l-.3.09v-24.91c4.82-3.39,9.77-6.91,13.9-11.23,1.6-1.67,3.8-4.27,4.51-7.53Z"/>
      <path d="m84.75,135.39l.39-.1h0c1.39-.36,2.77-.73,4.17-1.1,1.5-.4,3.01-.81,4.51-1.23l.98-.28c.31-.08.62-.17.92-.28l.13-.05.09-.11c2.84-3.21,4.58-7.97,4.54-12.43-.02-1.98-.38-3.95-1.08-5.85-.45-1.21-.88-2.28-1.68-3.14-.92-1-2.24-1.68-3.94-2.01-1.61-.32-3.38-.34-5.58-.05-1.08.14-2.19.35-3.4.63-4.31,1.01-8.97,2.25-14.24,3.8-5.12,1.5-10.29,3.83-15.37,6.92-5.41,3.29-10.15,7.07-14.08,11.23-4.41,4.67-7.48,9.51-9.11,14.4-2.8,8.41-3.31,15.73-1.5,21.74.79,2.63,1.9,4.52,3.41,5.77.75.63,1.57,1.04,2.42,1.22.77.16,1.56.12,2.34-.02.65-.08,1.97-.42,4.72-1.13,2.24-.58,3.9-1.02,5.13-1.36,0,.98.02,1.96.07,2.93.34,6.96,2.09,13.76,5.04,19.65,1.24,2.48,2.66,5.05,4.54,7.09,1.08,1.16,2.23,1.99,3.43,2.46.79.31,1.63.46,2.48.46.4,0,.8-.03,1.21-.1.98-.17,1.94-.43,2.88-.68.29-.08.58-.16.86-.23.73-.19,1.47-.38,2.21-.57,2.5-.64,5.09-1.3,7.58-2.1.74-.24,1.4-.51,1.99-.84,1.82-1,3.34-2.42,4.6-3.89v7.01s0,.1-.01.16c-.02.22.7,1.24.7,1.24.08-.02,1.74-.43,1.89-.46h0s.01,0,.02,0l.5-.13h0c1.34-.35,2.68-.7,4.02-1.06,1.51-.41,3.02-.81,4.53-1.23.04-.01.14-.03.26-.07,1.66-.41,2-.49,2-1.01v-37.7c.39-2.16.68-4.26.87-6.32.25-2.76.49-6.89-.33-10.89-.15-.72-.33-1.42-.54-2.07v-.63l-.71.19c-.72.08-2.29.51-5.91,1.51l-.49.14c-1.51.41-3.02.81-4.53,1.23-.04.01-.13.03-.26.06-.93.23-1.45.36-1.73.52l-.44.12.16.47v19c-.3,1.61-.65,3.27-1.08,4.99-1.15,4.71-2.65,9.29-4.46,13.61-1.89,4.53-3.87,8.25-6.05,11.35-.43.62-.9,1.26-1.42,1.91-1.13-1.04-2.02-2.31-2.99-3.88-1.68-2.72-3.08-5.62-4.16-8.62-3.18-8.88-3.7-18.94-1.51-29.08.39-1.8.88-3.89,1.62-5.82,0,0-2.38-.37-2.48-.36v.04s-.03,0-.03,0v-.05h-.01c-1.52.39-3.03.79-4.54,1.2-1.51.41-3.02.81-4.53,1.23l-.98.28c-.3.08-.6.17-.9.28l-.25.07-.07.19c-.4.53-.71,1.13-1.01,1.71-.12.24-.25.48-.37.71-.93,1.68-1.86,3.36-2.77,5.05-.76,1.39-1.52,2.79-2.27,4.19-.05.09-.1.18-.15.28-.34-.77-.55-1.41-.64-1.73-1.58-5.27-1.28-11.71.9-19.16,1.46-5,4.07-9.72,7.75-14.02,3.34-3.9,7.47-7.54,12.29-10.83,3.93-2.68,7.97-4.91,12.04-6.64,2.28-.14,4.58.12,6.25,1.45.46.37.84.81,1.12,1.33.87,1.6,1.47,3.5,1.72,5.47.39,3.04-.12,6.25-1.49,9.3-.81,1.81-1.68,3.22-2.65,4.32,0,0,0,0,0,0l.83.73c-.06.07-.12.09-.12.09.21-.1,1.41-.33,1.67-.37l-.07-.53.13.52h0Z"/>
      <path d="m174.32,88.15v-3.4c0-.9.01-2.43-1.02-3.06,0,0-2.72-.02-3.19.12-.21.06-.41.12-.6.17-3.94,1.01-7.17,1.88-10.15,2.73l-.11.03c-.25.07-.51.15-.77.23-1.72.36-3.08,1.59-3.63,1.99-1.65,1.2-3.34,2.66-5.33,4.62-.31.3-.61.6-.91.91l-1.16,1.21,1.65-.28c.21-.04.41-.08.6-.13.45-.11.89-.22,1.34-.34,1.52-.39,3.03-.79,4.56-1.2,1.5-.4,3.01-.81,4.51-1.23l.3-.09v24.91c-4.82,3.39-9.78,6.91-13.9,11.23-1.6,1.67-3.8,4.27-4.51,7.53-.43,1.99-.4,4.06-.36,6.06,0,.54.02,1.09.02,1.62v24.44l.69.54c.06-.02,1.75-.43,1.89-.46h0c1.52-.39,3.03-.79,4.54-1.2,1.51-.41,3.02-.81,4.53-1.23.04-.01.13-.03.26-.06,1.67-.41,2.01-.49,2.01-1.02v-22.84c0-.72-.01-1.44-.03-2.17-.04-2.01-.08-4.1.2-6.06.33-2.27,1.44-4.47,3.39-6.73.41-.47.84-.93,1.27-1.37v43.89c-.86.23-1.72.45-2.59.68-1.5.4-3.01.81-4.51,1.23-.17.05-.36.09-.54.13-.48.11-.97.23-1.42.45l-8.92,4.4-.07.03c-.19.07-.43.16-.57.37-.16.24-.15.54-.13.95,0,.06,0,.12,0,.16,0,.58-.02,1.16-.03,1.73-.06,1.86-.18,3.5-.37,5-.22,1.77-.53,3.64-1.25,5.33l-.03.07c-.17.41-.41.97-.72,1.2l-1.78,1.36,2.21-.37c.21-.04.41-.08.6-.13.45-.11.9-.22,1.34-.34,1.52-.39,3.03-.79,4.56-1.2,1.5-.4,3.01-.81,4.51-1.23.14-.04.32-.07.51-.11.54-.11,1.14-.23,1.54-.53.44-.34.7-.87.93-1.35.77-1.6,1.11-3.36,1.36-5.02.21-1.41.36-2.94.45-4.69.05-.92.08-1.86.09-2.88,0-.08,0-.2-.02-.34,0-.09-.02-.25-.02-.37,0,0,0,0,0,0,.26-.2.65-.37,1.04-.53.21-.09.42-.17.6-.26l3.24-1.6v28.41c0,3.36-.11,6.93-.87,10.37-.29,1.32-.64,2.68-1.38,3.67-.05.07-.11.15-.15.18l-1.79,1.36,2.22-.38c.21-.04.41-.08.59-.13.45-.11.9-.22,1.34-.34,1.52-.39,3.03-.79,4.54-1.2,1.51-.41,3.02-.81,4.53-1.23.14-.04.32-.07.51-.11.54-.11,1.14-.23,1.54-.53.7-.54,1.06-1.54,1.31-2.27l.04-.12c1.13-3.2,1.34-6.81,1.44-9.94.08-2.5.07-5.04.05-7.5,0-.96-.01-1.92-.01-2.88v-98.86Z"/>
      <path d="m249.49,112.5c-.79-2.63-1.9-4.51-3.4-5.77-.75-.63-1.57-1.04-2.42-1.22-.77-.16-1.56-.12-2.34.02-.65.08-1.96.42-4.7,1.13-2.25.59-3.92,1.02-5.15,1.36,0-.98-.02-1.96-.07-2.93-.34-6.96-2.09-13.76-5.04-19.65-1.24-2.48-2.65-5.05-4.54-7.08-1.08-1.16-2.23-1.99-3.43-2.46-1.15-.45-2.43-.58-3.69-.36-.98.17-1.94.43-2.87.68-.29.08-.58.16-.87.23-.73.19-1.46.38-2.19.56-2.51.64-5.1,1.3-7.6,2.11-.74.24-1.4.51-1.99.84-1.82,1-3.34,2.42-4.6,3.89v-7.01s0-.1.01-.16c.02-.23-.7-1.24-.7-1.24-.06.02-1.75.43-1.89.46h0c-1.52.39-3.03.79-4.58,1.2-1.5.4-3,.81-4.49,1.22-.04.01-.13.03-.25.06-1.67.41-2.01.49-2.01,1.02v37.7c-.39,2.16-.68,4.26-.87,6.32-.25,2.76-.49,6.89.33,10.89.15.72.33,1.42.54,2.07v.63l.72-.19c.72-.08,2.29-.51,5.91-1.51l.53-.14c1.5-.4,3-.81,4.49-1.22.04-.01.13-.03.25-.06.93-.23,1.45-.36,1.73-.52l.44-.12-.16-.47v-19c.3-1.61.66-3.27,1.08-4.99,1.15-4.71,2.65-9.29,4.46-13.61,1.89-4.53,3.87-8.25,6.05-11.35.43-.62.9-1.26,1.42-1.91,1.13,1.04,2.02,2.31,2.99,3.88,1.68,2.72,3.08,5.62,4.16,8.62,3.18,8.88,3.7,18.94,1.51,29.08-.39,1.8-.88,3.89-1.63,5.82,0,0,2.38.37,2.48.35v-.04s.03,0,.03,0v.05c1.53-.39,3.04-.79,4.55-1.2,1.51-.41,3.02-.81,4.53-1.23l.99-.28c.31-.08.61-.17.9-.27l.25-.07.07-.19c.4-.53.71-1.13,1.01-1.71.12-.24.25-.48.37-.7.94-1.68,1.86-3.36,2.78-5.05.76-1.39,1.52-2.79,2.27-4.19.05-.09.1-.18.15-.28.34.77.55,1.41.64,1.73,1.58,5.27,1.28,11.71-.9,19.16-1.46,5-4.07,9.72-7.75,14.02-3.34,3.9-7.47,7.54-12.29,10.83-3.93,2.68-7.97,4.91-12.04,6.64-2.29.14-4.58-.12-6.25-1.45-.46-.37-.84-.81-1.12-1.33-.87-1.6-1.47-3.5-1.72-5.47-.39-3.04.12-6.25,1.49-9.3.81-1.81,1.68-3.22,2.64-4.31,0,0,0,0,0,0,0,0,0,0,0,0l-.83-.73c.06-.07.12-.09.12-.09-.21.1-1.41.33-1.67.37l.07.53-.13-.52-.39.1h0c-1.39.36-2.77.73-4.15,1.1-1.51.41-3.02.81-4.53,1.23l-.98.28c-.31.08-.62.17-.92.28l-.13.05-.09.11c-2.84,3.21-4.58,7.97-4.54,12.43.02,1.98.38,3.95,1.08,5.85.36.98.82,2.21,1.68,3.14.92,1,2.24,1.68,3.94,2.01.85.17,1.74.25,2.72.25.88,0,1.82-.07,2.86-.2,1.08-.14,2.19-.35,3.4-.63,4.32-1.01,8.98-2.26,14.24-3.8,5.12-1.5,10.29-3.83,15.37-6.92,5.41-3.29,10.15-7.07,14.08-11.23,4.41-4.67,7.48-9.52,9.11-14.4,2.8-8.41,3.31-15.73,1.5-21.74Z"/>
    </g>
    <rect x="208.06" y="150.04" width="13.94" height="71.04" transform="translate(400.59 -29.47) rotate(90)"/>
    <path d="m43.96,178.59h-14.51v13.94h17.92c-1.72-4.39-2.87-9.1-3.41-13.94Z"/>
  </g>
  <g>
    <path d="m46.93,119.74c9.31-42.82,47.5-74.98,93.07-74.98,26.12,0,49.81,10.57,67.04,27.65.16-.04.33-.08.49-.13h.04c.21-.06.41-.12.62-.17-.05-.05-.1-.1-.15-.15-8.84-8.84-19.13-15.77-30.58-20.62-11.86-5.02-24.46-7.56-37.45-7.56s-25.59,2.54-37.45,7.56c-11.46,4.85-21.75,11.78-30.58,20.62-8.84,8.84-15.77,19.13-20.62,30.58-2.48,5.87-4.36,11.92-5.62,18.1.4-.3.8-.61,1.21-.9Z"/>
    <path d="m230.16,173.69c1.75-4.68,3.13-9.47,4.12-14.35-.4.3-.8.61-1.21.9-1,4.61-2.34,9.1-3.99,13.44h1.07Z"/>
    <path d="m215.92,197.44c-17.41,22.95-44.96,37.8-75.92,37.8-26.12,0-49.82-10.57-67.04-27.66-.17.04-.34.09-.51.13h-.05c-.2.06-.39.12-.59.17.05.05.1.11.16.16,8.84,8.84,19.13,15.77,30.58,20.62,11.86,5.02,24.46,7.56,37.45,7.56s25.59-2.54,37.45-7.56c11.46-4.85,21.75-11.78,30.58-20.62,3.33-3.33,6.39-6.87,9.17-10.6h-1.3Z"/>
  </g>
</svg>