<svg xmlns="http://www.w3.org/2000/svg" fill="none" viewBox="0 0 128 128">
    <path d="m90.37,35.79l.51-.13h0c1.85-.48,3.7-.97,5.56-1.47,2.01-.54,4.01-1.08,6.02-1.64l1.31-.37c.41-.1.82-.23,1.23-.38l.18-.06.12-.14c3.78-4.28,6.1-10.63,6.06-16.58-.02-2.64-.51-5.26-1.44-7.8-.59-1.61-1.17-3.04-2.23-4.19-1.23-1.33-2.99-2.24-5.25-2.68-2.15-.43-4.51-.45-7.44-.07-1.44.19-2.92.46-4.53.84-5.75,1.35-11.96,3.01-19,5.07-6.83,2.01-13.73,5.11-20.5,9.23-7.22,4.39-13.53,9.43-18.78,14.98-5.89,6.22-9.97,12.69-12.14,19.21-3.74,11.22-4.41,20.97-2.01,29,1.05,3.51,2.54,6.02,4.54,7.69,1,.84,2.09,1.38,3.22,1.62,1.03.22,2.08.15,3.12-.03.87-.1,2.63-.56,6.29-1.51,2.99-.78,5.21-1.36,6.84-1.81,0,1.31.03,2.61.09,3.91.46,9.29,2.78,18.35,6.72,26.2,1.66,3.31,3.54,6.74,6.06,9.45,1.44,1.55,2.98,2.65,4.57,3.28,1.05.41,2.17.62,3.31.62.53,0,1.07-.05,1.61-.14,1.3-.22,2.59-.57,3.84-.91.38-.1.77-.21,1.15-.31.98-.26,1.96-.51,2.94-.76,3.33-.85,6.78-1.74,10.11-2.8.99-.32,1.86-.69,2.66-1.12,2.42-1.33,4.45-3.23,6.14-5.18v9.35c0,.05,0,.13-.02.21-.03.3.94,1.65.94,1.65.11-.03,2.32-.57,2.51-.61h0s.02,0,.03,0l.67-.17h0c1.79-.46,3.58-.94,5.36-1.42,2.02-.54,4.03-1.08,6.04-1.64.05-.02.18-.05.35-.09,2.21-.54,2.67-.66,2.67-1.35v-50.27c.53-2.88.91-5.68,1.16-8.43.34-3.68.66-9.19-.43-14.52-.2-.96-.44-1.89-.73-2.76v-.84l-.95.26c-.96.1-3.05.68-7.88,2.02l-.66.18c-2.02.54-4.03,1.08-6.04,1.65-.05.01-.18.04-.34.08-1.25.31-1.94.47-2.31.69l-.59.16.21.63v25.34c-.4,2.14-.87,4.36-1.43,6.65-1.54,6.28-3.54,12.39-5.94,18.15-2.52,6.05-5.16,11-8.07,15.14-.58.82-1.21,1.68-1.89,2.54-1.5-1.38-2.69-3.08-3.99-5.18-2.25-3.62-4.11-7.49-5.55-11.49-4.24-11.84-4.94-25.25-2.02-38.78.52-2.39,1.18-5.18,2.17-7.76,0,0-3.17-.5-3.3-.47v.06s-.03.01-.03.01l-.02-.06h0c-2.02.52-4.04,1.05-6.05,1.6-2.02.54-4.03,1.08-6.04,1.64l-1.31.37c-.4.1-.8.23-1.19.37l-.33.09-.1.25c-.53.71-.94,1.51-1.34,2.28-.17.32-.33.64-.5.94-1.25,2.24-2.47,4.48-3.7,6.73-1.01,1.86-2.02,3.72-3.03,5.58-.07.12-.13.25-.2.37-.45-1.02-.73-1.88-.86-2.3-2.1-7.02-1.7-15.62,1.19-25.55,1.95-6.67,5.42-12.96,10.34-18.69,4.45-5.2,9.97-10.06,16.39-14.45,5.24-3.58,10.62-6.55,16.05-8.85,3.04-.19,6.11.16,8.33,1.93.61.49,1.11,1.08,1.49,1.77,1.16,2.14,1.95,4.66,2.3,7.3.52,4.05-.16,8.34-1.99,12.4-1.08,2.41-2.24,4.29-3.53,5.75,0,0,0,0,0,0l1.11.97c-.08.09-.15.13-.16.13.29-.13,1.88-.44,2.22-.5l-.1-.71.18.7h0Z"/>
    <style>
        path { fill: #000; }
        @media (prefers-color-scheme: dark) {
            path { fill: #FFF; }
        }
    </style>
</svg>
