<?xml version="1.0" encoding="UTF-8"?>
<svg id="Layer_1" data-name="Layer 1" xmlns="http://www.w3.org/2000/svg" viewBox="0 0 20 20">
  <path class="fill-primary stroke-none" d="m15.61,3.46H4.39c-.51,0-.93.42-.93.94v11.19c0,.52.42.94.93.94h11.21c.51,0,.93-.42.93-.94V4.4c0-.52-.42-.94-.93-.94ZM7.41,14.67h-1.94v-6.24h1.94v6.24h0Zm-.97-7.09c-.62,0-1.12-.51-1.12-1.12s.5-1.12,1.12-1.12,1.12.51,1.12,1.12-.5,1.12-1.12,1.12Zm8.24,7.09h-1.94v-3.04c0-.72-.01-1.66-1.01-1.66s-1.16.79-1.16,1.6v3.09h-1.94v-6.24h1.86v.85h.03c.26-.49.89-1.01,1.84-1.01,1.96,0,2.33,1.29,2.33,2.97v3.42Z" />
</svg>