<?xml version="1.0" encoding="UTF-8"?>
<svg id="Layer_1" data-name="Layer 1" xmlns="http://www.w3.org/2000/svg" viewBox="0 0 20 20">
  <defs>
    <style>
      .cls-1 {
        fill: #545454;
      }

      .cls-1, .cls-2 {
        stroke-width: 0px;
      }

      .cls-2 {
        fill: #b7b7b7;
      }
    </style>
  </defs>
  <path class="cls-2" d="m8.5,4.26c0,.44.36.8.8.8,3.11,0,5.63,2.52,5.63,5.63,0,.44.36.8.8.8s.8-.36.8-.8c0-4-3.24-7.24-7.24-7.24-.44,0-.8.36-.8.8Zm0,2.41c0,.44.36.8.8.8,1.78,0,3.22,1.44,3.22,3.22,0,.44.36.8.8.8s.8-.36.8-.8c0-2.66-2.16-4.82-4.82-4.82-.44,0-.8.36-.8.8Z"/>
  <path class="cls-1" d="m5.73,6.76c0-.7-.61-1.28-1.35-1.28s-1.35.57-1.35,1.28v5.95c0,2.11,1.82,3.83,4.06,3.83s4.06-1.71,4.06-3.83-1.82-3.83-4.06-3.83h-.45v2.55h.45c.75,0,1.35.57,1.35,1.28s-.61,1.28-1.35,1.28-1.35-.57-1.35-1.28v-5.95Z"/>
</svg>