<?xml version="1.0" encoding="UTF-8"?>
<svg id="Layer_1" data-name="Layer 1" xmlns="http://www.w3.org/2000/svg" viewBox="0 0 20 20">
  <defs>
    <style>
      .cls-1 {
        fill: #545454;
      }

      .cls-1, .cls-2 {
        stroke-width: 0px;
      }

      .cls-2 {
        fill: #b7b7b7;
      }
    </style>
  </defs>
  <path class="cls-2" d="m15.23,6.08h-1.74v-1.09c0-.84-.68-1.53-1.53-1.53h-3.92c-.84,0-1.53.68-1.53,1.53v1.09h-1.74c-.96,0-1.74.78-1.74,1.74v2.62h13.95v-2.62c0-.96-.78-1.74-1.74-1.74Zm-3.05,0h-4.36v-1.09c0-.12.1-.22.22-.22h3.92c.12,0,.22.1.22.22v1.09Z"/>
  <path class="cls-1" d="m16.98,11.31h-5.23v.87c0,.48-.39.87-.87.87h-1.74c-.48,0-.87-.39-.87-.87v-.87H3.02v3.49c0,.96.78,1.74,1.74,1.74h10.46c.96,0,1.74-.78,1.74-1.74v-3.49Z"/>
</svg>