<?xml version="1.0" encoding="UTF-8"?>
<svg id="Layer_1" data-name="Layer 1" xmlns="http://www.w3.org/2000/svg" viewBox="0 0 20 20">
  <defs>
    <style>
      .cls-1 {
        fill: #545454;
        stroke-width: 0px;
      }
    </style>
  </defs>
  <path class="cls-1" d="m15.33,4.16c-.18.44-.42.85-.7,1.24-1.22-1.22-2.89-1.91-4.62-1.91-3.58,0-6.53,2.95-6.53,6.54,0,1.79.73,3.5,2.03,4.74l.24.21c1.18.99,2.67,1.54,4.21,1.54,3.41,0,6.27-2.67,6.51-6.07.18-1.67-.31-3.77-1.14-6.28h0ZM6.44,14.8c-.11.13-.27.21-.43.21-.31,0-.56-.25-.56-.56s.25-.56.56-.56c.13,0,.25.04.35.13.24.19.28.55.08.79h0Zm8.86-1.96c-1.61,2.15-5.05,1.43-7.26,1.53,0,0-.39.02-.79.09,0,0,.15-.06.34-.14,1.55-.54,2.28-.64,3.22-1.13,1.77-.9,3.53-2.88,3.89-4.93-.68,1.98-2.72,3.67-4.59,4.37-1.28.47-3.58.93-3.58.93l-.09-.05c-1.57-.77-1.62-4.17,1.24-5.27,1.25-.48,2.45-.22,3.8-.54,1.44-.34,3.11-1.43,3.79-2.84.76,2.26,1.67,5.79.04,7.98h0Z"/>
</svg>