<?xml version="1.0" encoding="UTF-8"?>
<svg id="Layer_1" data-name="Layer 1" xmlns="http://www.w3.org/2000/svg" viewBox="0 0 20 20">
  <path class="fill-primary stroke-none" d="m9.62,3.46h5.95c.77,0,1.4.98,1.4,2.18v8.7c0,1.2-.63,2.18-1.4,2.18h-5.95V3.46Z"/>
  <path class="fill-primary stroke-none" d="m4.41,3.46c-.77,0-1.39.98-1.39,2.18v8.7c0,1.2.62,2.18,1.39,2.18h5.21V3.46h-5.21Z"/>
  <path class="fill-primary stroke-none" d="m8.49,11.68l-1.68-3.79c-.08-.19-.27-.31-.48-.31s-.4.12-.48.31l-1.68,3.79c-.12.27,0,.58.27.69.27.12.58,0,.69-.27l.23-.53h1.94l.23.53c.12.27.43.38.69.27.27-.12.38-.43.27-.69Zm-2.67-1.12l.5-1.13.5,1.13h-1Z"/>
  <path class="fill-primary stroke-none" d="m15.3,8.21h-1.58v-.11c0-.29-.24-.53-.53-.53h0c-.29,0-.53.23-.53.52v.11h-1.37c-.29,0-.53.24-.53.53s.24.53.53.53h2.82c-.19.44-.46.84-.78,1.18h-.01s-.38-.4-.38-.4c-.21-.21-.54-.21-.74,0s-.21.54,0,.74l.32.32c-.16.1-.32.18-.49.26l-.09.04c-.27.12-.39.43-.27.69.12.27.43.39.69.27l.09-.04c.32-.14.62-.31.89-.51.11.08.23.15.34.22l.5.3c.25.15.57.07.72-.18.15-.25.07-.57-.18-.72l-.5-.3s-.05-.03-.07-.04c.45-.49.81-1.08,1.04-1.72l.04-.12h.05c.29,0,.53-.24.53-.53s-.24-.53-.53-.53Z"/>
</svg>