<?xml version="1.0" encoding="UTF-8"?>
<svg id="Layer_1" data-name="Layer 1" xmlns="http://www.w3.org/2000/svg" viewBox="0 0 20 20">
  <defs>
    <style>
      .cls-1 {
        fill: #545454;
        stroke-width: 0px;
      }
    </style>
  </defs>
  <path class="cls-1" d="m15.14,3.46H4.86c-.77,0-1.4.63-1.4,1.4v10.28c0,.77.63,1.4,1.4,1.4h10.28c.77,0,1.4-.63,1.4-1.4V4.86c0-.77-.63-1.4-1.4-1.4Zm-4.56,10.2c0,1.27-.75,1.85-1.84,1.85-.98,0-1.55-.51-1.85-1.12l1-.6c.19.34.37.63.79.63s.66-.16.66-.77v-4.18h1.23v4.2Zm2.91,1.85c-1.14,0-1.88-.54-2.24-1.26l1-.58c.26.43.61.75,1.21.75.51,0,.83-.25.83-.61,0-.42-.33-.57-.9-.82l-.31-.13c-.89-.38-1.47-.85-1.47-1.85,0-.92.7-1.62,1.8-1.62.78,0,1.34.27,1.75.98l-.96.61c-.21-.38-.44-.53-.79-.53s-.59.23-.59.53c0,.37.23.52.76.75l.31.13c1.05.45,1.63.91,1.63,1.93,0,1.1-.87,1.71-2.03,1.71Z"/>
</svg>