<?xml version="1.0" encoding="UTF-8"?>
<svg id="Layer_1" data-name="Layer 1" xmlns="http://www.w3.org/2000/svg" viewBox="0 0 20 20">
  <defs>
    <style>
      .cls-1 {
        fill: #545454;
      }

      .cls-1, .cls-2 {
        stroke-width: 0px;
      }

      .cls-2 {
        fill: #b7b7b7;
      }
    </style>
  </defs>
  <path class="cls-2" d="m3.9,10.75h.76l5.33-4.65,5.33,4.65h.76c.41,0,.76-.34.76-.76.02-.21-.07-.41-.26-.57l-6.09-5.35c-.14-.12-.33-.17-.5-.17s-.36.02-.52.19l-6.11,5.33c-.17.17-.24.36-.24.57,0,.43.33.76.76.76Z"/>
  <path class="cls-1" d="m4.67,10.75v4.39c0,.53.42.95.95.95h1.91c.53,0,.95-.43.95-.95v-2.1c0-.42.34-.76.76-.76h1.53c.42,0,.76.34.76.76v2.1c0,.53.43.95.95.95h1.91c.53,0,.95-.43.95-.95v-4.39s-5.34-4.65-5.34-4.65l-5.33,4.65Z"/>
</svg>