<?xml version="1.0" encoding="UTF-8"?>
<svg id="Layer_1" data-name="Layer 1" xmlns="http://www.w3.org/2000/svg" viewBox="0 0 20 20">
  <path class="fill-primary stroke-none" d="m14.53,5.47c-1.21-1.21-2.82-1.88-4.53-1.88-3.53,0-6.4,2.87-6.4,6.4,0,1.13.29,2.23.85,3.2l-.91,3.32,3.39-.89c.93.51,1.99.78,3.06.78h0c3.53,0,6.46-2.87,6.46-6.4,0-1.71-.73-3.32-1.94-4.53Zm-4.53,9.85c-.96,0-1.89-.26-2.71-.74l-.19-.12-2.01.53.54-1.96-.13-.2c-.53-.85-.81-1.83-.81-2.83,0-2.93,2.39-5.32,5.32-5.32,1.42,0,2.76.55,3.76,1.56s1.62,2.34,1.62,3.76c0,2.94-2.45,5.32-5.38,5.32Zm2.92-3.99c-.16-.08-.95-.47-1.09-.52-.15-.05-.25-.08-.36.08-.11.16-.41.52-.51.63-.09.11-.19.12-.35.04-.94-.47-1.56-.84-2.18-1.9-.16-.28.16-.26.47-.87.05-.11.03-.2-.01-.28s-.36-.87-.49-1.19c-.13-.31-.26-.27-.36-.27-.09,0-.2,0-.31,0s-.28.04-.43.2c-.15.16-.56.55-.56,1.34s.57,1.55.65,1.66c.08.11,1.13,1.72,2.73,2.42,1.02.44,1.41.48,1.92.4.31-.05.95-.39,1.08-.76s.13-.7.09-.76c-.04-.07-.14-.11-.3-.19Z" />
</svg>