<?xml version="1.0" encoding="UTF-8"?>
<svg id="Layer_1" data-name="Layer 1" xmlns="http://www.w3.org/2000/svg" viewBox="0 0 20 20">
  <defs>
    <style>
      .cls-1 {
        fill: #545454;
      }

      .cls-1, .cls-2 {
        stroke-width: 0px;
      }

      .cls-2 {
        fill: #b7b7b7;
      }
    </style>
  </defs>
  <path class="cls-1" d="m9.54,3.48c-3.6,0-6.52,2.92-6.52,6.53s2.92,6.53,6.52,6.53c1.77,0,3.37-.71,4.54-1.85.15-.14.18-.36.09-.55s-.29-.28-.5-.25c-.29.05-.58.08-.88.08-2.83,0-5.12-2.3-5.12-5.13,0-1.92,1.05-3.59,2.6-4.47.18-.1.27-.31.22-.5s-.21-.35-.42-.36c-.18-.01-.37-.02-.55-.02h0Z"/>
  <path class="cls-2" d="m15.04,6.64l-1.28-.16-.86.97-.24-1.27-1.19-.52,1.13-.63.13-1.29.94.89,1.27-.28-.55,1.17.65,1.12Zm-1.25,3.56l.19-1.91-1.63,1.01-1.76-.77.46,1.86-1.27,1.44,1.92.14.97,1.66.72-1.78,1.88-.41-1.47-1.24Z"/>
</svg>