<?xml version="1.0" encoding="UTF-8"?>
<svg id="Layer_1" data-name="Layer 1" xmlns="http://www.w3.org/2000/svg" viewBox="0 0 20 20">
  <defs>
    <style>
      .cls-1 {
        fill: #76b3e1;
      }

      .cls-1, .cls-2, .cls-3, .cls-4 {
        stroke-width: 0px;
      }

      .cls-2 {
        fill: #518ac8;
      }

      .cls-3 {
        fill: #545454;
      }

      .cls-4 {
        fill: #b7b7b7;
      }
    </style>
  </defs>
  <path class="cls-1" d="m16.98,6.26s-4.65-3.42-8.25-2.63l-.26.09c-.53.18-.97.44-1.23.79l-.18.26-1.32,2.28,2.28.44c.97.61,2.19.88,3.33.61l4.04.79,1.58-2.63Z"/>
  <path class="cls-3" d="m16.98,6.26s-4.65-3.42-8.25-2.63l-.26.09c-.53.18-.97.44-1.23.79l-.18.26-1.32,2.28,2.28.44c.97.61,2.19.88,3.33.61l4.04.79,1.58-2.63Z"/>
  <path class="cls-2" d="m7.24,6.26l-.35.09c-1.49.44-1.93,1.84-1.14,3.07.88,1.14,2.72,1.75,4.21,1.32l5.44-1.84s-4.65-3.42-8.16-2.63Z"/>
  <path class="cls-4" d="m7.24,6.26l-.35.09c-1.49.44-1.93,1.84-1.14,3.07.88,1.14,2.72,1.75,4.21,1.32l5.44-1.84s-4.65-3.42-8.16-2.63Z"/>
  <path class="cls-3" d="m14.43,10.21c-1-1.26-2.67-1.78-4.21-1.32l-5.44,1.75-1.75,3.07,9.83,1.67,1.75-3.16c.35-.61.26-1.32-.18-2.02Z"/>
  <path class="cls-4" d="m12.68,13.28c-1-1.26-2.67-1.78-4.21-1.32l-5.44,1.75s4.65,3.51,8.25,2.63l.26-.09c1.49-.44,2.02-1.84,1.14-2.98Z"/>
</svg>