<?xml version="1.0" encoding="UTF-8"?>
<svg id="Layer_1" data-name="Layer 1" xmlns="http://www.w3.org/2000/svg" viewBox="0 0 20 20">
  <defs>
    <style>
      .cls-1 {
        fill: #545454;
        stroke-width: 0px;
      }
    </style>
  </defs>
  <path class="cls-1" d="m15.66,5.62v1.21c0,1.12-2.54,2.02-5.66,2.02s-5.66-.91-5.66-2.02v-1.21c0-1.12,2.54-2.02,5.66-2.02s5.66.91,5.66,2.02Zm-1.39,3.41c.53-.19,1.01-.43,1.39-.72v2.58c0,1.12-2.54,2.02-5.66,2.02s-5.66-.91-5.66-2.02v-2.58c.38.3.86.54,1.39.72,1.14.4,2.65.64,4.28.64s3.14-.24,4.28-.64Zm-9.94,3.32c.38.3.86.54,1.39.72,1.14.4,2.65.64,4.28.64s3.14-.24,4.28-.64c.53-.19,1.01-.43,1.39-.72v2.17c0,1.12-2.54,2.02-5.66,2.02s-5.66-.91-5.66-2.02v-2.17Z"/>
</svg>