<?xml version="1.0" encoding="UTF-8"?>
<svg id="Layer_1" data-name="Layer 1" xmlns="http://www.w3.org/2000/svg" viewBox="0 0 20 20">
  <defs>
    <style>
      .cls-1 {
        fill: #545454;
      }

      .cls-1, .cls-2 {
        stroke-width: 0px;
      }

      .cls-2 {
        fill: #b7b7b7;
      }
    </style>
  </defs>
  <path class="cls-2" d="m7.56,10.01c0-1.35,1.1-2.45,2.45-2.45s2.45,1.1,2.45,2.45-1.1,2.45-2.45,2.45-2.45-1.1-2.45-2.45Z"/>
  <path class="cls-1" d="m14.88,10.01l1.59-2.31c.08-.11.09-.26.04-.39-.05-.13-.17-.22-.3-.24l-2.75-.51-.51-2.75c-.03-.14-.12-.25-.24-.3-.13-.05-.27-.04-.39.04l-2.3,1.59-2.3-1.59c-.11-.08-.26-.09-.39-.04-.13.05-.22.17-.24.3l-.51,2.75-2.75.51c-.14.03-.25.12-.3.24-.05.13-.04.27.04.39l1.59,2.3-1.59,2.3c-.08.11-.09.26-.04.39.05.13.17.22.3.24l2.75.51.51,2.75c.03.14.12.25.24.3.13.05.27.04.39-.04l2.3-1.59,2.3,1.59c.11.08.26.09.39.04.13-.05.22-.17.24-.3l.51-2.75,2.75-.51c.14-.03.25-.12.3-.24.05-.13.04-.27-.04-.39l-1.59-2.3Zm-4.87,3.26c-1.8,0-3.26-1.46-3.26-3.26s1.46-3.26,3.26-3.26,3.26,1.46,3.26,3.26-1.46,3.26-3.26,3.26Z"/>
</svg>