<?xml version="1.0" encoding="UTF-8"?>
<svg id="Layer_1" data-name="Layer 1" xmlns="http://www.w3.org/2000/svg" viewBox="0 0 20 20">
  <defs>
    <style>
      .cls-1 {
        fill: #545454;
      }

      .cls-1, .cls-2 {
        stroke-width: 0px;
      }

      .cls-2 {
        fill: #b7b7b7;
      }
    </style>
  </defs>
  <path class="cls-2" d="m7.58,12.35c2.48,0,4.5-1.93,4.5-4.31s-2.01-4.31-4.5-4.31-4.5,1.93-4.5,4.31c0,.95.32,1.82.86,2.53-.08.23-.19.43-.31.6-.1.15-.21.27-.29.35-.04.04-.07.07-.09.09-.01,0-.02.02-.02.02h0c-.12.11-.17.28-.12.44s.18.27.33.27c.47,0,.95-.14,1.34-.31.2-.09.38-.18.55-.28.66.37,1.44.59,2.26.59Z"/>
  <path class="cls-1" d="m12.77,8.04c0,2.75-2.14,4.82-4.68,5.07.53,1.82,2.27,3.16,4.34,3.16.83,0,1.6-.21,2.26-.59.16.1.35.19.54.28.4.17.87.31,1.34.31.15,0,.28-.11.33-.27.05-.16,0-.34-.13-.44h0s-.01-.01-.02-.02c-.02-.02-.05-.05-.09-.09-.08-.08-.18-.2-.29-.35-.12-.17-.23-.38-.31-.6.54-.71.86-1.58.86-2.53,0-2.27-1.84-4.14-4.16-4.3,0,.12.01.25.01.38h0Z"/>
</svg>