<?xml version="1.0" encoding="UTF-8"?>
<svg id="Layer_1" data-name="Layer 1" xmlns="http://www.w3.org/2000/svg" viewBox="0 0 20 20">
  <path class="fill-primary stroke-none" d="m7.76,13.87c0,.05-.06.1-.14.1-.09,0-.15-.03-.15-.1,0-.05.06-.1.14-.1.08,0,.15.03.15.1Zm-.83-.12c-.02.05.03.11.11.13.07.03.15,0,.16-.05s-.03-.11-.11-.14c-.07-.02-.15,0-.16.06Zm1.18-.05c-.08.02-.13.07-.12.13,0,.05.08.09.16.07.08-.02.13-.07.12-.12,0-.05-.08-.09-.16-.08Zm1.75-10.19c-3.69,0-6.51,2.8-6.51,6.49,0,2.95,1.86,5.47,4.51,6.36.34.06.46-.15.46-.32s0-1.07,0-1.63c0,0-1.86.4-2.25-.79,0,0-.3-.77-.74-.97,0,0-.61-.42.04-.41,0,0,.66.05,1.03.69.58,1.03,1.56.73,1.94.56.06-.43.23-.72.43-.9-1.49-.16-2.99-.38-2.99-2.94,0-.73.2-1.1.63-1.57-.07-.17-.3-.89.07-1.81.56-.17,1.83.72,1.83.72.53-.15,1.1-.23,1.67-.23s1.14.08,1.67.23c0,0,1.28-.89,1.83-.72.36.92.14,1.63.07,1.81.43.47.69.84.69,1.57,0,2.57-1.57,2.77-3.05,2.94.24.21.45.61.45,1.23,0,.9,0,2,0,2.22,0,.17.12.38.46.32,2.66-.88,4.46-3.41,4.46-6.35,0-3.69-2.99-6.49-6.68-6.49Zm-3.92,9.17s-.03.09.02.14c.04.04.1.06.14.03.03-.03.03-.09-.02-.14-.04-.04-.1-.06-.14-.03Zm-.29-.22s0,.08.06.1c.04.03.1.02.11-.02.02-.03,0-.08-.06-.1-.05-.02-.1,0-.11.02Zm.86.95s-.03.11.03.16c.06.06.14.07.17.03.03-.03.02-.11-.03-.16-.06-.06-.14-.07-.17-.03Zm-.3-.39s-.04.1,0,.16.11.09.15.06c.04-.03.04-.1,0-.16-.04-.06-.11-.09-.15-.05Z" />
</svg>