<?xml version="1.0" encoding="UTF-8"?>
<svg id="Layer_1" data-name="Layer 1" xmlns="http://www.w3.org/2000/svg" viewBox="0 0 20 20">
  <defs>
    <style>
      .cls-1 {
        fill: #545454;
        stroke-width: 0px;
      }
    </style>
  </defs>
  <path class="cls-1" d="m8.01,14.46c-.65-.58-.84-1.81-.57-2.7.47.56,1.11.74,1.78.84,1.03.15,2.05.1,3.01-.37.11-.05.21-.12.33-.2.09.26.11.52.08.78-.08.65-.4,1.15-.92,1.52-.21.15-.43.29-.64.43-.66.44-.84.95-.59,1.7,0,.02.01.04.02.08-.34-.15-.58-.36-.77-.65-.2-.3-.29-.63-.3-.99,0-.17,0-.35-.03-.52-.06-.42-.26-.61-.63-.62-.39-.01-.69.22-.77.6,0,.03-.02.06-.02.09h0Z"/>
  <path class="cls-1" d="m4.76,12.03s1.77-.86,3.54-.86l1.34-4.13c.05-.2.2-.34.36-.34s.31.14.36.34l1.34,4.13c2.1,0,3.54.86,3.54.86,0,0-3-8.16-3.01-8.18-.09-.24-.23-.4-.43-.4h-3.6c-.2,0-.34.16-.43.4,0,.02-3.01,8.18-3.01,8.18Z"/>
</svg>