<?xml version="1.0" encoding="UTF-8"?>
<svg id="Layer_1" data-name="Layer 1" xmlns="http://www.w3.org/2000/svg" viewBox="0 0 20 20">
  <defs>
    <style>
      .cls-1 {
      fill: rgba(255, 255, 255, 0.3);
      }

      .cls-1, .cls-2 {
      stroke-width: 0px;
      }

      .cls-2 {
      fill: rgba(255, 255, 255, 0.7);
      }
    </style>
  </defs>
  <path class="cls-1"
    d="m6.73,3.46c-.9,0-1.63.73-1.63,1.63v9.81c0,.9.73,1.63,1.63,1.63h6.54c.9,0,1.63-.73,1.63-1.63V6.73s-3.27-3.27-3.27-3.27h-4.9Z" />
  <path class="cls-2"
    d="m10.61,9.39v2.61l.79-.79c.24-.24.63-.24.87,0s.24.63,0,.87l-1.84,1.84c-.24.24-.63.24-.87,0l-1.84-1.84c-.24-.24-.24-.63,0-.87s.63-.24.87,0l.79.79v-2.61c0-.34.27-.61.61-.61s.61.27.61.61h0Zm1.02-5.93v1.63c0,.9.73,1.63,1.63,1.63h1.63" />
</svg>