<?xml version="1.0" encoding="UTF-8"?>
<svg id="Layer_1" data-name="Layer 1" xmlns="http://www.w3.org/2000/svg" viewBox="0 0 20 20">
  <defs>
    <style>
      .cls-1 {
        fill: #545454;
        stroke-width: 0px;
      }
    </style>
  </defs>
  <path class="cls-1" d="m14.38,7.65c-.15-.05-.29-.09-.44-.14.02-.1.05-.2.07-.3.33-1.61.11-2.9-.62-3.33-.71-.41-1.87.02-3.04,1.04-.12.1-.23.21-.34.31-.07-.07-.15-.14-.22-.21-1.23-1.09-2.46-1.55-3.19-1.12-.71.41-.92,1.63-.62,3.15.03.15.06.3.1.45-.17.05-.34.1-.5.16-1.44.5-2.47,1.29-2.47,2.1s1.1,1.69,2.6,2.2c.12.04.24.08.37.12-.04.16-.08.32-.11.49-.28,1.5-.06,2.68.64,3.09.73.42,1.95-.01,3.15-1.05.09-.08.19-.17.28-.26.12.12.24.23.37.33,1.15.99,2.3,1.39,3,.99.73-.42.97-1.7.66-3.25-.02-.12-.05-.24-.08-.36.09-.02.17-.05.25-.08,1.56-.52,2.68-1.35,2.68-2.2s-1.06-1.61-2.53-2.12Zm-3.65-2.29c1-.87,1.94-1.22,2.37-.97.46.26.63,1.32.35,2.71-.02.09-.04.18-.06.27-.6-.13-1.21-.23-1.82-.29-.35-.5-.73-.98-1.15-1.43.11-.1.21-.19.32-.29Zm-3.12,5.81c.14.23.28.47.43.7-.42-.05-.84-.11-1.25-.2.12-.39.27-.79.44-1.2.12.24.25.47.39.7Zm-.82-3.25c.39-.09.8-.16,1.23-.21-.14.22-.28.45-.42.69-.13.23-.26.46-.38.7-.17-.4-.31-.8-.43-1.18Zm.74,1.86c.18-.37.37-.74.58-1.1s.43-.71.66-1.05c.4-.03.82-.05,1.24-.05s.84.02,1.24.05c.23.34.45.69.66,1.04s.4.72.59,1.09c-.18.37-.38.74-.58,1.1-.21.36-.42.71-.65,1.05-.4.03-.82.04-1.24.04s-.83-.01-1.23-.04c-.23-.34-.46-.69-.66-1.05s-.4-.72-.58-1.1Zm4.87,1.38c.14-.24.27-.48.39-.72.17.39.32.79.46,1.2-.42.09-.84.17-1.27.22.15-.23.28-.46.42-.69Zm.39-2.06c-.13-.24-.26-.47-.39-.71-.13-.23-.27-.46-.41-.68.43.05.85.13,1.24.22-.12.4-.27.79-.43,1.17Zm-2.78-3.04c.28.31.55.63.8.97-.53-.02-1.07-.02-1.61,0,.26-.35.54-.67.81-.97Zm-3.13-1.65c.45-.26,1.46.11,2.52,1.05.07.06.13.12.21.19-.42.45-.8.93-1.16,1.43-.61.05-1.21.15-1.81.28-.04-.14-.06-.28-.09-.42-.25-1.31-.09-2.29.34-2.54Zm-.66,7.11c-.11-.03-.22-.07-.33-.11-.57-.18-1.23-.47-1.7-.84-.27-.19-.46-.48-.51-.81,0-.49.85-1.13,2.08-1.55.15-.05.31-.1.47-.15.18.59.4,1.16.66,1.72-.26.56-.48,1.15-.67,1.74Zm3.15,2.64c-.45.41-.96.73-1.52.95-.3.14-.64.16-.95.04-.43-.25-.61-1.2-.36-2.48.03-.15.06-.3.1-.45.6.13,1.21.22,1.83.26.36.5.75.99,1.17,1.44-.09.08-.17.16-.26.24Zm.66-.66c-.28-.3-.55-.63-.82-.98.26.01.53.02.8.02s.55,0,.82-.02c-.25.34-.52.67-.8.98Zm3.53.81c-.02.33-.19.64-.45.84-.43.25-1.34-.08-2.33-.92-.11-.1-.23-.2-.34-.31.41-.46.79-.94,1.14-1.45.62-.05,1.23-.15,1.84-.28.03.11.05.22.07.33.13.58.15,1.19.07,1.79Zm.49-2.9c-.08.02-.15.05-.23.07-.19-.59-.42-1.16-.69-1.72.26-.55.48-1.12.66-1.7.14.04.28.08.4.13,1.26.43,2.14,1.07,2.14,1.56,0,.53-.94,1.21-2.29,1.66Zm-4.04-.4c.68,0,1.24-.55,1.24-1.24s-.55-1.24-1.24-1.24-1.24.55-1.24,1.24.55,1.24,1.24,1.24Z"/>
</svg>